<?xml version="1.0" encoding="utf-8"?>
<!-- Generator: Adobe Illustrator 27.5.0, SVG Export Plug-In . SVG Version: 6.00 Build 0)  -->
<svg version="1.1" id="Layer_1" xmlns="http://www.w3.org/2000/svg" xmlns:xlink="http://www.w3.org/1999/xlink" x="0px" y="0px"
	 viewBox="0 0 425.2 425.2" style="enable-background:new 0 0 425.2 425.2;" xml:space="preserve">
<style type="text/css">
	.st0{fill:#14b8a6;}
	.st1{fill-rule:evenodd;clip-rule:evenodd;fill:#14b8a6;}
	.st2{fill:none;}
</style>
<g>
	<g>
		<path class="st0" d="M64.2,158.1H77v11.1h8.5v-11.1h12.8v34.1H85.5v-11.1H77v11.1H64.2V158.1z"/>
		<path class="st0" d="M112.2,192.1c-2.2-0.4-4.1-1-5.6-1.7v-9.6c1.7,0.8,3.6,1.5,5.6,2c2.1,0.5,3.9,0.8,5.5,0.8
			c1.1,0,1.9-0.1,2.5-0.4s0.9-0.6,0.9-1.1c0-0.4-0.2-0.8-0.7-1c-0.5-0.3-1.4-0.6-2.8-1.1c-1.6-0.5-2.4-0.8-2.7-0.9
			c-2.3-0.8-4-1.7-5.2-2.6c-1.2-0.9-2.1-2-2.7-3.3c-0.5-1.3-0.8-2.9-0.8-4.9c0-3.6,1.2-6.3,3.7-8c2.5-1.7,6.2-2.6,11.3-2.6
			c1.7,0,3.6,0.2,5.8,0.5c2.2,0.3,4,0.7,5.5,1.1v9.6c-3.4-1.4-6.4-2.1-9.1-2.1c-2.7,0-4.1,0.4-4.1,1.3c0,0.4,0.2,0.6,0.7,0.9
			c0.5,0.2,1.5,0.6,3,1l1.4,0.4c2.7,0.7,4.8,1.7,6.2,2.7c1.4,1.1,2.4,2.3,2.9,3.7c0.5,1.4,0.8,3.1,0.8,5.2c0,3.3-1.3,5.9-3.9,7.9
			c-2.6,1.9-6.4,2.9-11.3,2.9C116.8,192.7,114.4,192.5,112.2,192.1z"/>
		<path class="st0" d="M145.1,188.3c-3.4-3-5.2-7.3-5.2-13.1c0-5.8,1.7-10.2,5.1-13.1s8.5-4.5,15.2-4.5c2.1,0,4,0.2,5.6,0.5
			c1.7,0.3,3.4,0.8,5.1,1.4v11.2c-3.2-1.5-6.5-2.2-9.9-2.2c-2.6,0-4.7,0.5-6,1.5c-1.4,1-2,2.8-2,5.2c0,2.4,0.7,4.2,2.1,5.2
			c1.4,1,3.4,1.6,6.1,1.6c3.4,0,6.7-0.7,9.9-2.2v11.2c-1.7,0.6-3.4,1.1-5.1,1.4s-3.6,0.5-5.6,0.5
			C153.7,192.7,148.6,191.2,145.1,188.3z"/>
		<path class="st0" d="M180.3,188.6c-3.1-2.8-4.6-7.2-4.6-13.5c0-6.2,1.5-10.7,4.6-13.5c3.1-2.8,7.6-4.1,13.6-4.1
			c6,0,10.6,1.4,13.6,4.1c3.1,2.8,4.6,7.2,4.6,13.5c0,6.2-1.5,10.7-4.6,13.5c-3.1,2.8-7.6,4.1-13.6,4.1
			C187.9,192.7,183.4,191.3,180.3,188.6z M197.9,180.3c0.8-1,1.2-2.7,1.2-5.2c0-2.5-0.4-4.2-1.2-5.2s-2.1-1.5-4-1.5
			c-1.9,0-3.2,0.5-4,1.5s-1.2,2.7-1.2,5.2c0,2.5,0.4,4.2,1.2,5.2s2.1,1.5,4,1.5C195.8,181.9,197.1,181.4,197.9,180.3z"/>
		<path class="st0" d="M220.1,158.1h16.2c11.8,0,17.7,5.8,17.7,17.3c0,5.8-1.5,10-4.6,12.7c-3.1,2.7-7.4,4.1-13.1,4.1h-16.2V158.1z
			 M234.9,182.4c2.1,0,3.6-0.5,4.6-1.5c1-1,1.5-2.9,1.5-5.6c0-1.9-0.2-3.4-0.7-4.3c-0.4-1-1.1-1.6-2-2c-0.9-0.3-2-0.5-3.5-0.5H233
			v13.9H234.9z"/>
		<path class="st0" d="M262,158.1h27.3v9.2h-14.5v3.1h12.5v9.5h-12.5v3.1h14.5v9.2H262V158.1z"/>
	</g>
	<g>
		<path class="st0" d="M347.3,390.2c-9.1,0-18-3.7-24.5-10.1L242,299.2l-1.3,0.7c-20,10.5-42.5,16-65.2,16
			C98,315.9,35,252.9,35,175.5S98,35,175.5,35C252.9,35,316,98,316,175.5c0,22.7-5.6,45.3-16.1,65.3l-0.7,1.3l80.9,80.6
			c6.5,6.8,10.1,15.5,10.1,24.6c0,9.3-3.6,18-10.1,24.6l-8.3,8.1C365.4,386.5,356.5,390.2,347.3,390.2z M290.9,255.6
			c-9.6,13.8-21.5,25.7-35.3,35.3l-2,1.4l78.5,78.4c4.1,4.1,9.5,6.4,15.3,6.4c5.8,0,11.2-2.3,15.2-6.4l8.3-8.2
			c4-4.1,6.2-9.5,6.2-15.3c0-5.5-2.2-10.9-6.2-15.2l-78.6-78.5L290.9,255.6z M175.5,47.5c-70.6,0-128.1,57.4-128.1,128
			c0,70.6,57.5,128,128.1,128c70.6,0,128.1-57.4,128.1-128C303.6,104.9,246.1,47.5,175.5,47.5z"/>
		<path class="st0" d="M347.3,394.2c-10.2,0-20.1-4.1-27.3-11.3l-78.7-78.7c-20.2,10.4-42.9,15.8-65.8,15.8
			C95.8,319.9,31,255.1,31,175.5S95.8,31,175.5,31S320,95.8,320,175.5c0,22.9-5.5,45.6-15.9,65.9l78.8,78.5
			c7.3,7.6,11.3,17.3,11.3,27.4c0,10.4-4,20.1-11.3,27.4l-8.3,8.2C367.6,390,357.6,394.2,347.3,394.2z M242.8,294.3l82.9,82.9
			c5.7,5.7,13.6,9,21.6,9c8.2,0,16-3.3,21.6-9l8.4-8.2c5.7-5.8,8.9-13.5,8.9-21.7c0-8-3.2-15.8-9-21.8l-82.9-82.6l2.1-4
			c10.2-19.4,15.6-41.3,15.6-63.4C312,100.2,250.7,39,175.5,39S39,100.2,39,175.5s61.2,136.5,136.5,136.5c22,0,43.9-5.4,63.3-15.6
			L242.8,294.3z M347.3,381.1c-6.8,0-13.3-2.7-18.1-7.5l-81.9-81.8l6-4.1c13.4-9.3,25-20.9,34.3-34.3l4.1-5.9l82.1,82
			c4.7,5,7.2,11.4,7.2,17.9c0,6.8-2.6,13.3-7.4,18.1l-8.3,8.2C360.6,378.4,354.2,381.1,347.3,381.1z M259.7,292.9l75.2,75
			c3.3,3.3,7.8,5.2,12.5,5.2c4.7,0,9.1-1.8,12.4-5.2l8.3-8.2c3.2-3.3,5-7.7,5-12.4c0-4.5-1.8-8.9-5.1-12.4l-75.2-75.1
			C283.6,272.6,272.5,283.7,259.7,292.9z M175.5,307.5c-72.8,0-132.1-59.2-132.1-132c0-72.8,59.3-132,132.1-132
			s132.1,59.2,132.1,132C307.6,248.3,248.3,307.5,175.5,307.5z M175.5,51.5c-68.4,0-124.1,55.6-124.1,124c0,68.4,55.7,124,124.1,124
			s124.1-55.6,124.1-124C299.6,107.1,243.9,51.5,175.5,51.5z"/>
	</g>
</g>
</svg>
