<svg xmlns="http://www.w3.org/2000/svg" width="864" height="864" viewBox="0 0 864 864"><rect width="100%" height="100%" fill="#DDDDDD"/><path fill="#999999" d="M203.185 463.39q3.5 0 6.15-1 2.64-1.01 4.45-2.79 1.82-1.79 2.74-4.26.92-2.47.92-5.34 0-6.85-3.8-10.36-3.79-3.5-10.46-3.5-6.67 0-10.47 3.5-3.79 3.51-3.79 10.36 0 2.87.92 5.34.92 2.47 2.73 4.26 1.81 1.78 4.45 2.79 2.65 1 6.16 1Zm0-63.19q-3.17 0-5.47.98-2.3.97-3.82 2.61t-2.24 3.77q-.72 2.13-.72 4.48 0 2.48.6 4.81.61 2.32 2.04 4.14 1.44 1.81 3.8 2.9 2.36 1.09 5.81 1.09 3.45 0 5.8-1.09 2.36-1.09 3.8-2.9 1.44-1.82 2.04-4.14.6-2.33.6-4.81 0-2.35-.74-4.48-.75-2.13-2.25-3.77-1.49-1.64-3.79-2.61-2.3-.98-5.46-.98Zm14.03 30.01q7.59 2.48 11.21 7.57 3.62 5.08 3.62 12.44 0 5.53-2.1 10.01-2.1 4.48-5.89 7.65-3.8 3.16-9.12 4.88-5.31 1.73-11.75 1.73t-11.76-1.73q-5.32-1.72-9.12-4.88-3.79-3.17-5.89-7.65-2.1-4.48-2.1-10.01 0-7.36 3.62-12.44 3.63-5.09 11.22-7.57-6.04-2.53-9.06-7.18-3.02-4.66-3.02-11.22 0-4.71 1.93-8.79 1.92-4.09 5.37-7.1 3.45-3.02 8.25-4.72 4.81-1.69 10.56-1.69 5.75 0 10.55 1.69 4.8 1.7 8.25 4.72 3.45 3.01 5.37 7.1 1.93 4.08 1.93 8.79 0 6.56-3.02 11.22-3.02 4.65-9.05 7.18Zm74-39.79-24.67 30.19-2.88 3.57q2.42-1.21 5.21-1.87 2.79-.66 6.01-.66 4.71 0 9.17 1.55t7.85 4.69q3.39 3.13 5.46 7.79t2.07 10.86q0 5.81-2.13 10.9-2.12 5.09-5.98 8.88-3.85 3.8-9.28 5.98-5.44 2.19-11.99 2.19-6.67 0-11.96-2.13-5.29-2.12-9.03-5.95-3.74-3.82-5.72-9.2-1.98-5.37-1.98-11.93 0-5.87 2.38-12.05 2.39-6.18 7.39-12.85l19.84-26.62q1.03-1.38 3.02-2.36 1.98-.98 4.57-.98h12.65Zm-21.45 72.45q3.39 0 6.24-1.15 2.84-1.15 4.89-3.22 2.04-2.07 3.19-4.85 1.15-2.79 1.15-6.07 0-3.56-1.09-6.41-1.1-2.85-3.11-4.83-2.01-1.99-4.83-3.02-2.82-1.04-6.21-1.04t-6.15 1.15q-2.76 1.16-4.72 3.2-1.95 2.04-3.04 4.83-1.1 2.78-1.1 6 0 3.45.95 6.3.95 2.85 2.82 4.86 1.87 2.01 4.63 3.13t6.38 1.12Zm49.11-20.64h25.3v-27.2q0-3.85.51-8.51l-25.81 35.71Zm37.66 0h10.46v8.22q0 1.16-.74 1.99-.75.83-2.13.83h-7.59v20.3h-12.36v-20.3h-35.08q-1.44 0-2.53-.89-1.09-.89-1.38-2.21l-1.49-7.19 39.38-52.61h13.46v51.86Zm101.83 12.31-7.53 7.41-19.49-19.49-19.67 19.61-7.53-7.42 19.66-19.72-18.74-18.75 7.47-7.47 18.75 18.74 18.63-18.63 7.59 7.48-18.69 18.69 19.55 19.55Zm67.51 8.85q3.5 0 6.15-1 2.64-1.01 4.45-2.79 1.82-1.79 2.74-4.26.92-2.47.92-5.34 0-6.85-3.8-10.36-3.79-3.5-10.46-3.5-6.67 0-10.47 3.5-3.79 3.51-3.79 10.36 0 2.87.92 5.34.92 2.47 2.73 4.26 1.81 1.78 4.45 2.79 2.65 1 6.16 1Zm0-63.19q-3.17 0-5.47.98-2.3.97-3.82 2.61t-2.24 3.77q-.72 2.13-.72 4.48 0 2.48.6 4.81.61 2.32 2.04 4.14 1.44 1.81 3.8 2.9 2.36 1.09 5.81 1.09 3.45 0 5.8-1.09 2.36-1.09 3.8-2.9 1.44-1.82 2.04-4.14.6-2.33.6-4.81 0-2.35-.74-4.48-.75-2.13-2.25-3.77-1.49-1.64-3.79-2.61-2.3-.98-5.46-.98Zm14.03 30.01q7.59 2.48 11.21 7.57 3.62 5.08 3.62 12.44 0 5.53-2.1 10.01-2.1 4.48-5.89 7.65-3.8 3.16-9.12 4.88-5.31 1.73-11.75 1.73t-11.76-1.73q-5.32-1.72-9.12-4.88-3.79-3.17-5.89-7.65-2.1-4.48-2.1-10.01 0-7.36 3.62-12.44 3.63-5.09 11.22-7.57-6.04-2.53-9.06-7.18-3.02-4.66-3.02-11.22 0-4.71 1.93-8.79 1.92-4.09 5.37-7.1 3.45-3.02 8.25-4.72 4.81-1.69 10.56-1.69 5.75 0 10.55 1.69 4.8 1.7 8.25 4.72 3.45 3.01 5.37 7.1 1.93 4.08 1.93 8.79 0 6.56-3.02 11.22-3.02 4.65-9.05 7.18Zm74-39.79-24.67 30.19-2.87 3.57q2.41-1.21 5.2-1.87 2.79-.66 6.01-.66 4.71 0 9.17 1.55t7.85 4.69q3.39 3.13 5.46 7.79t2.07 10.86q0 5.81-2.13 10.9-2.12 5.09-5.98 8.88-3.85 3.8-9.28 5.98-5.44 2.19-11.99 2.19-6.67 0-11.96-2.13-5.29-2.12-9.03-5.95-3.74-3.82-5.72-9.2-1.98-5.37-1.98-11.93 0-5.87 2.38-12.05 2.39-6.18 7.39-12.85l19.84-26.62q1.03-1.38 3.02-2.36 1.98-.98 4.57-.98h12.65Zm-21.45 72.45q3.39 0 6.24-1.15t4.89-3.22q2.04-2.07 3.19-4.85 1.15-2.79 1.15-6.07 0-3.56-1.09-6.41-1.1-2.85-3.11-4.83-2.01-1.99-4.83-3.02-2.82-1.04-6.21-1.04t-6.15 1.15q-2.76 1.16-4.72 3.2-1.95 2.04-3.04 4.83-1.1 2.78-1.1 6 0 3.45.95 6.3.95 2.85 2.82 4.86 1.87 2.01 4.63 3.13t6.38 1.12Zm49.11-20.64h25.3v-27.2q0-3.85.51-8.51l-25.81 35.71Zm37.66 0h10.46v8.22q0 1.16-.74 1.99-.75.83-2.13.83h-7.59v20.3h-12.36v-20.3h-35.08q-1.44 0-2.53-.89-1.09-.89-1.38-2.21l-1.49-7.19 39.38-52.61h13.46v51.86Z"/></svg>